<?xml version="1.0" encoding="UTF-8"?>
<!DOCTYPE svg PUBLIC "-//W3C//DTD SVG 1.1//EN" "http://www.w3.org/Graphics/SVG/1.1/DTD/svg11.dtd">
<svg xmlns="http://www.w3.org/2000/svg" version="1.1" width="512" height="512" style="shape-rendering:geometricPrecision; text-rendering:geometricPrecision; image-rendering:optimizeQuality; fill-rule:evenodd; clip-rule:evenodd" xmlns:xlink="http://www.w3.org/1999/xlink" viewBox="0 0 512 512">
<g><path style="opacity:0.958" fill="currentColor" d="M 108.5,-0.5 C 110.167,-0.5 111.833,-0.5 113.5,-0.5C 119.884,0.705683 124.384,4.37235 127,10.5C 127.667,35.5 127.667,60.5 127,85.5C 124.407,92.7191 119.24,96.3858 111.5,96.5C 102.186,96.3539 96.6858,91.6872 95,82.5C 94.3333,59.8333 94.3333,37.1667 95,14.5C 96.5825,6.75622 101.082,1.75622 108.5,-0.5 Z"/></g>
<g><path style="opacity:0.959" fill="currentColor" d="M 204.5,-0.5 C 206.5,-0.5 208.5,-0.5 210.5,-0.5C 216.329,1.15516 220.495,4.82183 223,10.5C 223.667,35.8333 223.667,61.1667 223,86.5C 216.963,96.7441 208.463,99.2441 197.5,94C 193.618,90.7363 191.451,86.5697 191,81.5C 190.333,59.5 190.333,37.5 191,15.5C 192.147,7.19646 196.647,1.86312 204.5,-0.5 Z"/></g>
<g><path style="opacity:0.959" fill="currentColor" d="M 300.5,-0.5 C 302.5,-0.5 304.5,-0.5 306.5,-0.5C 314.353,1.86312 318.853,7.19646 320,15.5C 320.667,37.5 320.667,59.5 320,81.5C 316.964,94.94 308.797,99.44 295.5,95C 291.961,93.0931 289.461,90.2597 288,86.5C 287.333,61.1667 287.333,35.8333 288,10.5C 290.505,4.82183 294.671,1.15516 300.5,-0.5 Z"/></g>
<g><path style="opacity:0.958" fill="currentColor" d="M 396.5,-0.5 C 398.5,-0.5 400.5,-0.5 402.5,-0.5C 409.89,1.73067 414.39,6.73067 416,14.5C 416.667,37.1667 416.667,59.8333 416,82.5C 413.308,93.937 406.141,98.437 394.5,96C 389,94.5 385.5,91 384,85.5C 383.333,60.5 383.333,35.5 384,10.5C 386.505,4.82183 390.671,1.15516 396.5,-0.5 Z"/></g>
<g><path style="opacity:0.969" fill="currentColor" d="M 511.5,78.5 C 511.5,208.167 511.5,337.833 511.5,467.5C 504.5,493.168 487.833,507.835 461.5,511.5C 324.167,511.5 186.833,511.5 49.5,511.5C 23.167,507.835 6.50037,493.168 -0.5,467.5C -0.5,337.833 -0.5,208.167 -0.5,78.5C 5.69091,54.5513 21.0242,40.3847 45.5,36C 59.8295,35.5001 74.1628,35.3334 88.5,35.5C 88.7311,51.9142 88.2311,68.2476 87,84.5C 93.0439,101.105 104.544,106.939 121.5,102C 134.09,94.9857 138.59,84.4857 135,70.5C 134.5,58.8381 134.333,47.1714 134.5,35.5C 151.167,35.5 167.833,35.5 184.5,35.5C 184.731,51.9142 184.231,68.2476 183,84.5C 189.081,101.123 200.581,106.957 217.5,102C 230.09,94.9857 234.59,84.4857 231,70.5C 230.5,58.8381 230.333,47.1714 230.5,35.5C 247.167,35.5 263.833,35.5 280.5,35.5C 280.731,51.9027 280.231,68.236 279,84.5C 285.081,101.123 296.581,106.957 313.5,102C 326.102,94.9632 330.602,84.4632 327,70.5C 326.5,58.8381 326.333,47.1714 326.5,35.5C 343.167,35.5 359.833,35.5 376.5,35.5C 377.003,50.0784 376.336,64.5784 374.5,79C 376.249,93.9161 384.582,102.416 399.5,104.5C 419.017,101.109 426.851,89.7761 423,70.5C 422.5,58.8381 422.333,47.1714 422.5,35.5C 436.837,35.3334 451.171,35.5001 465.5,36C 489.976,40.3847 505.309,54.5513 511.5,78.5 Z M 50.5,143.5 C 187.167,143.333 323.834,143.5 460.5,144C 475.776,148.276 485.276,158.109 489,173.5C 489.667,268.5 489.667,363.5 489,458.5C 485.267,473.899 475.767,483.733 460.5,488C 323.833,488.667 187.167,488.667 50.5,488C 35.2326,483.733 25.7326,473.899 22,458.5C 21.3333,363.5 21.3333,268.5 22,173.5C 25.9086,158.093 35.4086,148.093 50.5,143.5 Z M 249.5,316.5 C 272.843,315.325 280.677,325.658 273,347.5C 263.754,356.535 253.587,357.702 242.5,351C 232.636,340.365 232.636,330.031 242.5,320C 244.925,318.787 247.259,317.621 249.5,316.5 Z"/></g>
<g><path style="opacity:0.953" fill="currentColor" d="M 124.5,253.5 C 135.961,252.911 147.294,253.744 158.5,256C 177.81,262.782 185.644,276.282 182,296.5C 179.421,303.244 174.921,308.244 168.5,311.5C 186.12,320.514 191.953,334.514 186,353.5C 178.866,368.276 167.032,376.443 150.5,378C 132.724,381.13 116.058,378.13 100.5,369C 91.408,361.649 86.408,352.149 85.5,340.5C 95.5222,340.168 105.522,340.501 115.5,341.5C 119.513,351.184 126.847,355.85 137.5,355.5C 154.115,355.078 159.949,347.078 155,331.5C 151.984,327.908 148.151,325.742 143.5,325C 137.843,324.501 132.176,324.334 126.5,324.5C 126.5,316.5 126.5,308.5 126.5,300.5C 132.176,300.666 137.843,300.499 143.5,300C 151.087,297.997 153.92,293.164 152,285.5C 150.402,280.901 147.235,278.068 142.5,277C 130.572,273.957 122.239,277.957 117.5,289C 107.839,289.5 98.1724,289.666 88.5,289.5C 89.7527,275.839 96.4193,265.672 108.5,259C 113.846,256.83 119.179,254.997 124.5,253.5 Z"/></g>
<g><path style="opacity:0.959" fill="currentColor" d="M 245.5,253.5 C 263.229,250.557 279.062,254.557 293,265.5C 297.753,271.007 300.92,277.34 302.5,284.5C 292.5,285.833 282.5,285.833 272.5,284.5C 268.829,278.422 263.329,275.422 256,275.5C 246.951,275.884 240.618,280.218 237,288.5C 234.916,293.676 233.916,299.009 234,304.5C 242.401,296.697 252.401,293.031 264,293.5C 294.873,295.373 308.873,311.706 306,342.5C 301.2,362.965 288.366,374.798 267.5,378C 252.639,380.471 238.639,378.138 225.5,371C 214.516,362.883 207.683,352.049 205,338.5C 201.486,319.85 202.819,301.517 209,283.5C 216.247,267.412 228.414,257.412 245.5,253.5 Z M 249.5,316.5 C 247.259,317.621 244.925,318.787 242.5,320C 232.636,330.031 232.636,340.365 242.5,351C 253.587,357.702 263.754,356.535 273,347.5C 280.677,325.658 272.843,315.325 249.5,316.5 Z"/></g>
<g><path style="opacity:0.954" fill="currentColor" d="M 337.5,255.5 C 365.508,255.167 393.508,255.5 421.5,256.5C 420.21,264.035 418.877,271.535 417.5,279C 398.833,279.333 380.167,279.667 361.5,280C 359.652,286.093 358.985,292.259 359.5,298.5C 373.601,292.426 387.934,291.926 402.5,297C 413.153,301.653 420.32,309.486 424,320.5C 429.534,358.476 413.034,378.143 374.5,379.5C 361.838,379.252 350.171,375.752 339.5,369C 331.065,361.791 325.732,352.791 323.5,342C 333.5,341.333 343.5,341.333 353.5,342C 357.717,351.288 365.051,355.788 375.5,355.5C 388.111,355.056 395.111,348.556 396.5,336C 394.898,322.733 387.398,316.233 374,316.5C 364.492,316.004 357.325,319.837 352.5,328C 343.839,327.761 335.173,327.261 326.5,326.5C 330.064,302.784 333.731,279.117 337.5,255.5 Z"/></g>
</svg>
